<svg xmlns="http://www.w3.org/2000/svg" width="459.533" height="451.845" viewBox="0 0 459.533 451.845">
  <g id="Group_80" data-name="Group 80" transform="translate(-164.973 -5127.923)">
    <g id="_06" data-name="06" transform="translate(20.049 4929.058)">
      <g id="Objects" transform="translate(144.924 198.865)">
        <path id="Path_265" data-name="Path 265" d="M134.84,172.052c14.873-21.762,50.032-35.036,87.162-18.781,43.884,19.21,42.467,71.256,31.164,108.827s-58.259,92.64-66.051,129.387c-5.378,25.354,11.905,63.57,43.572,89.209a379.169,379.169,0,0,1,7.538-94.615c13.083-66.573,39.717-96.572,71.025-114.313s61.077-12.119,83.071-17.359,21.365-42.135,34.271-69.672c12.377-26.4,27.15-35.46,38.9-43.762s16.123-11.991,21.55-16.1,37.148-15.932,39.413-15.766-40.654,15.108-39.413,15.766-2.1,1.643,0,0,39.282-18.395,40.509-15.766-9.513,22.993-8.091,25.477,3.171,2.463,12.966,5.1,24.182,17.41,28.038,22.174,7.362,20.038,9.464,23.32a67.87,67.87,0,0,0,8.761,9.856,13.116,13.116,0,0,1,3.679,8.539,8.27,8.27,0,0,1-3.33,7.061c-1.577,1.151-.177,4.106-1.753,6.735a16.742,16.742,0,0,1-5.255,5.1c-1.4.985.874,3.287-4.032,8.539s-26.751,6.187-32.591,11.889-4.671,19.711-4.44,27.375,10.515,24.526,11.448,38.981S523.725,364,512.97,374.725s-26.869,44.233-26.633,51.681a206.579,206.579,0,0,0,6.8,32.628c2.338,8.76,4.209,32.411,6.311,34.394s14.95,3.94,19.158,7.219,4.906,9.856.453,17.083a13.925,13.925,0,0,1-13.083,6.132,22.015,22.015,0,0,1,6.306,7.219c2.1,4.272,1.051,11.826-3.855,14.127s-28.735,3.94-36.1,3.286a22.7,22.7,0,0,1-16.472-8.212c-5.608-5.584-6.659-18.726-8.059-20.038s-10.515,2.628-18.574,2.972-28.735,1.312-28.735,1.312l-4.2,3.286a28.274,28.274,0,0,1,12.268,14.437c2.1,8.539-2.1,14.233-10.981,17.3s-26.633-.875-32.242-3.066-11.212,1.316-24.767,1.316-44.4-5.257-64.483-6.131-14.017-3.066-18.225-6.569-7.475-2.191-19.625-11.826a23.766,23.766,0,0,1-6.94-10.229q-5.686-2.361-11.326-5.163c-50.739-25.244-113.99-102.275-20.889-222.707,25.823-33.4,33.524-77.235,22.977-97.982a38.37,38.37,0,0,0-27.193-19.146,40.373,40.373,0,0,0-32.783,8.488c-20.173,15.711-12.685,35.575-6.012,41.125s37.071,8.709,25.668,29.664c-5.808,10.679-33.279,3.987-48.351-16.055S119.971,193.814,134.84,172.052Z" transform="translate(-122.85 -108.831)"/>
      </g>
    </g>
    <path id="Subtraction_1" data-name="Subtraction 1" d="M9.5,22A9.271,9.271,0,0,1,0,13H19A9.27,9.27,0,0,1,9.5,22Z" transform="translate(579 5183)" fill="#fdba53"/>
  </g>
</svg>
