<?xml version="1.0" encoding="utf-8"?>
<!-- Generator: Adobe Illustrator 24.0.0, SVG Export Plug-In . SVG Version: 6.00 Build 0)  -->
<svg version="1.1" id="Layer_1" xmlns="http://www.w3.org/2000/svg" xmlns:xlink="http://www.w3.org/1999/xlink" x="0px" y="0px"
	 viewBox="0 0 20 20" style="enable-background:new 0 0 20 20;" xml:space="preserve">
<g>
	<g>
		<path d="M19.9,0.8C20,0.5,19.9,0,19.3,0C13.6-0.1,6.2,0.3,0.5,0.1c-0.2,0-0.3,0-0.4,0.1c-0.2,0.1-0.3,0.2-0.3,0.5
			c0,6.2-0.3,12.6,0.7,18.7c0,0.2,0.1,0.3,0.3,0.4C0.8,19.9,0.9,20,1.1,20c1.1,0,2.7-0.1,3.8-0.1c0.2,0,0.4-0.1,0.5-0.2
			c0.2-0.1,0.3-0.2,0.3-0.5V13c0,0,0-0.1,0-0.1c0,0,0,0,0-0.1c0-0.3-0.3-0.5-0.6-0.5c-0.4-0.1-1.1-0.1-1.6-0.1
			c0-0.1-0.1-0.5-0.1-0.6c0.4-0.1,1.1-0.1,1.5-0.1c0.1,0,0.1,0,0.2,0c0.3,0,0.6-0.2,0.6-0.5C5.5,9.2,5.4,7.7,5.6,5.9
			c0.8-1.8,2.9-2.4,4.9-2.2v0.9c-3.5,0.1-4.2,3.3-3.4,6c0,0.1,0.1,0.1,0.1,0.2c0,0.2,0.2,0.4,0.6,0.4h1.5v0.9
			c-0.5,0.2-1,0.2-1.6,0.2c0,0,0,0,0,0c-0.3,0-0.6,0.2-0.6,0.5c0.2,1.6,0.2,4.7,0.3,6.2c0,0.3,0.2,0.4,0.4,0.5c0.1,0,0.2,0,0.3,0
			c3.9,0,7.3,0.1,11.1-0.1c0.2,0,0.4-0.1,0.5-0.2c0.2-0.1,0.3-0.2,0.3-0.5C20.1,12.9,19.9,6.9,19.9,0.8C19.9,0.9,19.9,0.9,19.9,0.8z
			 M18.8,18.5c-3.6,0.1-6.7,0.1-10.2,0.1c-0.1-1.5-0.1-4-0.3-5.2c0.6-0.1,1.3-0.1,1.8-0.4c0.2-0.1,0.3-0.3,0.3-0.4c0,0,0-0.1,0-0.1
			v-1.7c0-0.4-0.3-0.5-0.6-0.5c0,0-0.1,0-0.2,0H8.2C7.6,8,7.9,5.6,10.9,5.7c0.3,0,0.5-0.2,0.6-0.4c0.1-0.1,0.2-0.2,0.2-0.4V3.2
			c0-0.4-0.3-0.5-0.6-0.5C8.3,2.2,5.5,3.1,4.4,5.6c-0.1,0.1-0.1,0.2,0,0.3c-0.1,1.6-0.1,2.9,0,4.5c-0.5,0-1.3,0.1-1.8,0.3
			c-0.3,0.1-0.5,0.3-0.4,0.6c0,0,0,0.1,0,0.1c0.1,0.4,0.2,1,0.2,1.5c0,0.3,0.4,0.4,0.6,0.4c0,0,0,0,0,0c0.4,0,1,0,1.4,0v5.5
			c-0.8,0-2.1,0-2.9,0.1C0.7,13.1,0.9,7.1,0.9,1.2C6.4,1.4,13.3,1,18.7,1.1C18.7,6.9,18.9,12.7,18.8,18.5z"/>
	</g>
</g>
</svg>
