<svg xmlns="http://www.w3.org/2000/svg" width="212.33" height="1157.103" viewBox="0 0 212.33 1157.103">
  <path id="Path_65" data-name="Path 65" d="M198.276-113.652v44.034q-7.872,36.162-34.44,54.735A101.1,101.1,0,0,1,104.55,3.69q-41.082,0-69.987-30.75t-28.9-74.292q0-44.28,28.29-74.784t70.6-30.5q49.446,0,78.228,34.686l-30.258,33.21q-16.236-26.076-45.264-26.076-21.4,0-36.531,18.573T55.6-101.352q0,25.83,15.129,44.157t36.531,18.327a47.458,47.458,0,0,0,30.873-10.7q13.161-10.7,13.161-28.413H104.55v-35.67Zm123.492-89.3L403.686,0H353.994L338.988-40.59H261.744L246.738,0H197.046l81.918-202.95Zm1.476,121.77-22.632-59.04h-.492L277.488-81.18ZM457.806-202.95V-40.59H527.67V0H411.558V-202.95Zm138.99,0V-40.59H666.66V0H550.548V-202.95Zm208.854,0v40.59H735.786v40.344H802.7v40.59H735.786V-40.59H805.65V0H689.538V-202.95Zm26.568,0h72.57q29.274,0,47.724,15.621t18.45,44.649q0,22.386-11.193,37.515T929.388-83.886L999.252,0H940.458L878.466-80.2V0H832.218Zm46.248,90.036h5.412q6.4,0,10.824-.246a51.939,51.939,0,0,0,10.086-1.722,24.688,24.688,0,0,0,9.1-4.182,21.573,21.573,0,0,0,5.9-7.872,29.008,29.008,0,0,0,2.46-12.546,29.008,29.008,0,0,0-2.46-12.546,21.573,21.573,0,0,0-5.9-7.872,24.689,24.689,0,0,0-9.1-4.182A51.94,51.94,0,0,0,894.7-165.8q-4.428-.246-10.824-.246h-5.412Zm85.608-90.036h55.6l42.312,64.944,42.312-64.944h55.6L1085.106-91.02V0h-46.248V-91.02Z" transform="translate(207.64 1161.761) rotate(-90)" fill="none" stroke="#000" stroke-width="2"/>
</svg>
