<?xml version="1.0" encoding="utf-8"?>
<!-- Generator: Adobe Illustrator 24.0.0, SVG Export Plug-In . SVG Version: 6.00 Build 0)  -->
<svg version="1.1" id="Layer_1" xmlns="http://www.w3.org/2000/svg" xmlns:xlink="http://www.w3.org/1999/xlink" x="0px" y="0px"
	 viewBox="0 0 20 20" style="enable-background:new 0 0 20 20;" xml:space="preserve">
<g>
	<g>
		<path d="M19.9,0.8c0-0.3-0.2-0.5-0.6-0.5C13.2,0.3,7,0,0.9,0c0,0,0,0-0.1,0c0,0,0,0-0.1,0C0.5,0,0.2,0.3,0.2,0.6v0.8
			c0,0,0,0.1,0,0.1c0,0,0,0.1,0,0.1C0.5,7.1-0.1,13.7,0,19.2c0,0.1,0,0.1,0,0.2c0,0.3,0.2,0.5,0.6,0.5c6.2,0.3,12.3,0.1,18.5-0.1
			c0.3,0,0.5-0.2,0.5-0.4c0.1-0.1,0.1-0.2,0.1-0.3c0-3.8,0-8.7,0.1-12.7c0.2-0.2,0.2-0.5,0-0.7c0-1.6,0.1-3.1,0.1-4.6
			C19.9,0.9,19.9,0.9,19.9,0.8z M6.6,1.3c0.4,0,0.8,0,1.2,0c0,1.3,0,2.6,0.1,3.9c-0.5,0-1,0-1.4-0.1C6.6,3.9,6.6,2.6,6.6,1.3z
			 M4.1,1.2c0.5,0,0.9,0,1.4,0c0,1.3-0.1,2.6-0.1,3.9c-0.5,0-0.9,0-1.4-0.1C4,3.8,4.1,2.5,4.1,1.2z M1.4,1.4V1.2c0.5,0,1,0,1.5,0
			c0,1.3,0,2.5-0.1,3.8C2.3,5,1.9,4.9,1.5,4.9c0-0.1,0-0.3,0-0.4c0,0,0-0.1,0-0.1c0-0.9,0-1.8-0.1-2.7c0,0,0-0.1,0-0.1
			C1.4,1.5,1.4,1.5,1.4,1.4z M18.5,18.6C12.7,18.8,7,18.9,1.2,18.7c0-3.9,0.2-8.7,0.3-12.6c5.7,0.4,11.4,0.5,17.2,0.5
			C18.5,10.4,18.5,15,18.5,18.6z M18.6,5.4c-3.2,0-6.3,0-9.5-0.1C9,4,9,2.6,9,1.3c3.2,0.1,6.5,0.2,9.7,0.2
			C18.7,2.7,18.7,4.1,18.6,5.4z"/>
		<path d="M13.2,4.4c0.1,0.2,0.2,0.4,0.5,0.4h1.8c0.1,0,0.3,0,0.3-0.1c0.2-0.1,0.4-0.3,0.4-0.5c-0.1-0.5-0.1-1.1-0.1-1.6
			c0-0.1,0-0.1,0-0.2c0-0.3-0.2-0.5-0.6-0.5h-1.7c-0.2,0-0.4,0.1-0.5,0.2c-0.2,0.1-0.4,0.2-0.4,0.5c0,0.5,0.1,0.9,0.1,1.4
			C13.1,4.2,13.2,4.3,13.2,4.4z M15,3.1c0,0.2,0,0.4,0,0.6h-0.7c0-0.2,0-0.4,0-0.6H15z"/>
		<path d="M18,4.2V2.5c0-0.8-1.2-0.8-1.2,0v1.6C16.8,4.9,18,4.9,18,4.2z"/>
		<path d="M10,7C9.9,7,9.8,7,9.7,7C6.1,6.9,3.3,10.4,4,14c0.5,2.8,3.3,4.3,6,4.2c2.5-0.1,5-1.6,5.6-4.1c0.4-1.5-0.1-3.1-0.8-4.4
			C13.8,7.9,11.9,7.2,10,7z M14.4,13.9c-0.5,1.8-2.5,2.9-4.2,3.1c-2,0.2-3.8-0.6-4.8-2.4c-1.6-3.1,1.5-7,4.8-6.4c0.1,0,0.2,0,0.3,0
			C13.1,8.7,15.1,11.2,14.4,13.9z"/>
		<path d="M10,9.1c-0.1,0-0.2,0-0.3,0c-1,0-2,0.4-2.7,1.3c-0.7,0.8-1,1.9-0.8,3C6.4,14.7,7.6,16,9.7,16h0c0.1,0,0.1,0,0.2,0
			c1.7-0.1,3.1-1.1,3.4-2.6c0.3-1.1-0.2-2.2-0.5-2.7C12.3,9.8,11.3,9.2,10,9.1z M12,13.2c-0.2,0.9-1.2,1.4-2.1,1.4
			c-0.1,0-0.2,0-0.3,0c-0.9,0-1.6-0.4-2-1.2c-0.3-0.6-0.3-1.3,0.1-2c0.4-0.7,1.1-1.1,1.8-1.1c0.1,0,0.2,0,0.3,0c0.1,0,0.2,0,0.2,0
			c0.7,0.1,1.2,0.5,1.6,1.1C12.1,12.1,12.2,12.7,12,13.2z"/>
		<path d="M10.4,11c-0.3-0.1-0.6-0.1-0.8,0.2c-0.2,0.3-0.1,0.7,0.2,0.8c0.2,0.1,0.3,0.2,0.5,0.3c0.1,0.1,0.1,0.3,0.1,0.4
			c0,0.8,1.2,0.8,1.2,0C11.5,12,11.1,11.3,10.4,11z"/>
	</g>
</g>
</svg>
