<svg xmlns="http://www.w3.org/2000/svg" xmlns:xlink="http://www.w3.org/1999/xlink" width="93" height="83" viewBox="0 0 93 83">
  <defs>
    <clipPath id="clip-custom_1">
      <rect width="93" height="83"/>
    </clipPath>
  </defs>
  <g id="custom_1" data-name="custom – 1" clip-path="url(#clip-custom_1)">
    <g id="Group_1" transform="translate(-32.006 48.02) rotate(-46)">
      <g id="Group_6" transform="translate(0 0)">
        <g id="Group_5" transform="translate(0 0)">
          <g id="Group_1-2" transform="translate(0.027 0.133)">
            <g id="Path_3" transform="translate(0 0)">
              <path id="Path_269" data-name="Path 269" d="M0,0S1.549,1.126,4.084,3.1c2.536,2.113,6.2,5.071,10.422,8.877A181.791,181.791,0,0,1,41.549,43.659a129.633,129.633,0,0,1,10.7,20,66.882,66.882,0,0,1,5.071,19.577A27.39,27.39,0,0,1,54.93,97.883a12,12,0,0,1-2.394,3.522l-.985,1.126.844-1.267a17.281,17.281,0,0,0,1.69-3.663,27.108,27.108,0,0,0,.564-13.8c-1.971-11.268-8.868-24.789-17.042-37.181a294.012,294.012,0,0,0-25.072-32.54C8.873,9.854,5.774,6.338,3.522,3.941,1.267,1.408,0,0,0,0Z" transform="translate(0 0)" fill="#7c8d3b"/>
            </g>
          </g>
          <g id="Group_2" transform="translate(0 0.074)">
            <g id="Path_4" transform="translate(0 0)">
              <path id="Path_270" data-name="Path 270" d="M0,0S1.549,1.126,4.084,3.1C6.76,5.069,10.563,7.746,15.07,10.981s9.854,6.9,15.775,10.7c5.912,3.663,12.253,7.605,18.732,10.986,12.957,6.9,26.9,12.676,38.027,13.8a34.323,34.323,0,0,0,7.605,0,16.758,16.758,0,0,0,5.774-1.549,17.952,17.952,0,0,0,3.522-2.113l1.126-.985-.985,1.126a19.232,19.232,0,0,1-3.241,2.685A26.579,26.579,0,0,1,87.18,49.01a62.34,62.34,0,0,1-19.569-3.519,114.742,114.742,0,0,1-20.562-8.873,182.073,182.073,0,0,1-33.81-23.662C9.014,9.3,5.774,5.912,3.381,3.522,1.267,1.408,0,0,0,0Z" fill="#7c8d3b"/>
            </g>
          </g>
          <g id="Group_3" transform="translate(0.052 0.036)">
            <g id="Path_5">
              <path id="Path_271" data-name="Path 271" d="M0,0S6.479,4.789,15.493,12.535c4.507,3.941,9.719,8.591,15.07,13.8S41.549,37.316,46.9,43.232C57.606,55.07,67.459,67.885,73.238,78.589a44.088,44.088,0,0,1,5.351,13.947,7.782,7.782,0,0,1-.423,4.366,9.887,9.887,0,0,1-.844,1.267,4.219,4.219,0,0,0,.564-1.408,8.083,8.083,0,0,0-.282-4.084c-.844-3.381-3.522-7.746-6.761-12.535A353.076,353.076,0,0,0,43.1,46.621C32.538,34.8,21.552,23.382,13.389,14.65,9.3,10.284,5.924,6.616,3.535,4.087A46.931,46.931,0,0,1,0,0Z" fill="#7c8d3b"/>
            </g>
          </g>
          <g id="Group_4" transform="translate(0.067 0)">
            <g id="Path_6" transform="translate(0 0)">
              <path id="Path_272" data-name="Path 272" d="M0,0S1.408.985,3.8,2.817s5.912,4.366,10.14,7.464c8.31,6.2,19.295,14.647,30.563,22.675A288.911,288.911,0,0,0,76.34,53.519c4.648,2.394,8.591,4.084,11.548,4.366a7.6,7.6,0,0,0,3.522-.423,3.067,3.067,0,0,0,1.126-.7l-.985.985a5.78,5.78,0,0,1-3.663.985,36.6,36.6,0,0,1-12.817-2.676c-10.005-3.8-22.112-10.986-33.52-19.013-5.633-4.084-11.127-8.31-16.2-12.535-4.93-4.225-9.578-8.31-13.239-11.824C4.507,5.351,0,0,0,0Z" fill="#7c8d3b"/>
            </g>
          </g>
        </g>
      </g>
    </g>
  </g>
</svg>
