<svg id="Group_10" data-name="Group 10" xmlns="http://www.w3.org/2000/svg" width="1770.4" height="681" viewBox="0 0 1770.4 681">
  <g id="Web_1920_3" transform="translate(-21.03 -1.042)">
    <g id="Path_1" transform="translate(146.6 111.176)">
      <path id="Path_267" data-name="Path 267" d="M764.062,298.124v81.108H654.245V271.46H312.532V120.3H146.6v31.124H275.927v469h36.605v-220H1764.58v220.1h26.85V298.124ZM624.887,358.143H312.532V298.124H624.887Z" transform="translate(-146.6 -120.3)"/>
    </g>
    <g id="Group_7" data-name="Group 7" transform="translate(177.411 -8.335)">
      <g id="Path_2" transform="translate(10.533 56.518)">
        <path id="Path_268" data-name="Path 268" d="M261.152,59.84c0,4.088-15.7,7.34-35.026,7.433S191.1,64.02,191.1,59.932s15.7-7.34,35.026-7.433S261.152,55.752,261.152,59.84Z" transform="translate(-191.1 -52.498)" fill="#de7ba1"/>
      </g>
      <g id="Group_1" transform="matrix(-0.656, -0.755, 0.755, -0.656, 45.715, 97.02)">
        <g id="Group_6">
          <g id="Group_5">
            <g id="Group_1-2" transform="translate(0.018 0.088)">
              <g id="Path_3">
                <path id="Path_269" data-name="Path 269" d="M0,0S1.022.743,2.694,2.044C4.367,3.438,6.782,5.389,9.569,7.9A119.919,119.919,0,0,1,27.408,28.8a85.511,85.511,0,0,1,7.061,13.193,44.119,44.119,0,0,1,3.345,12.914,18.068,18.068,0,0,1-1.579,9.662,7.914,7.914,0,0,1-1.579,2.323l-.65.743.557-.836a11.4,11.4,0,0,0,1.115-2.416,17.882,17.882,0,0,0,.372-9.1c-1.3-7.433-5.853-16.352-11.242-24.527A193.948,193.948,0,0,0,8.269,9.291C5.853,6.5,3.809,4.181,2.323,2.6.836.929,0,0,0,0Z" fill="#7c8d3b"/>
              </g>
            </g>
            <g id="Group_2" transform="translate(0 0.049)">
              <g id="Path_4">
                <path id="Path_270" data-name="Path 270" d="M0,0S1.022.743,2.694,2.044c1.765,1.3,4.274,3.066,7.247,5.2s6.5,4.552,10.406,7.061c3.9,2.416,8.083,5.017,12.357,7.247,8.547,4.552,17.745,8.362,25.085,9.1a22.642,22.642,0,0,0,5.017,0,11.055,11.055,0,0,0,3.809-1.022,11.843,11.843,0,0,0,2.323-1.394l.743-.65-.65.743A12.686,12.686,0,0,1,66.893,30.1a17.533,17.533,0,0,1-9.384,2.23A41.123,41.123,0,0,1,44.6,30.009a75.69,75.69,0,0,1-13.564-5.853A120.106,120.106,0,0,1,8.733,8.547C5.946,6.132,3.809,3.9,2.23,2.323.836.929,0,0,0,0Z" fill="#7c8d3b"/>
              </g>
            </g>
            <g id="Group_3" transform="translate(0.034 0.024)">
              <g id="Path_5">
                <path id="Path_271" data-name="Path 271" d="M0,0S4.274,3.159,10.22,8.269c2.973,2.6,6.411,5.667,9.941,9.1s7.247,7.247,10.777,11.149C38,36.327,44.5,44.781,48.312,51.842a29.083,29.083,0,0,1,3.53,9.2,5.133,5.133,0,0,1-.279,2.88,6.521,6.521,0,0,1-.557.836,2.783,2.783,0,0,0,.372-.929,5.332,5.332,0,0,0-.186-2.694c-.557-2.23-2.323-5.11-4.46-8.269a232.909,232.909,0,0,0-18.3-22.112c-6.968-7.8-14.215-15.33-19.6-21.09-2.694-2.88-4.924-5.3-6.5-6.968A30.958,30.958,0,0,1,0,0Z" fill="#7c8d3b"/>
              </g>
            </g>
            <g id="Group_4" transform="translate(0.044 0)">
              <g id="Path_6">
                <path id="Path_272" data-name="Path 272" d="M0,0S.929.65,2.508,1.858s3.9,2.88,6.689,4.924c5.482,4.088,12.728,9.662,20.161,14.958a190.581,190.581,0,0,0,21,13.564c3.066,1.579,5.667,2.694,7.618,2.88a5.012,5.012,0,0,0,2.323-.279,2.023,2.023,0,0,0,.743-.465l-.65.65a3.813,3.813,0,0,1-2.416.65,24.141,24.141,0,0,1-8.455-1.765c-6.6-2.508-14.586-7.247-22.112-12.542-3.716-2.694-7.34-5.482-10.684-8.269-3.252-2.787-6.318-5.482-8.733-7.8C2.973,3.53,0,0,0,0Z" fill="#7c8d3b"/>
              </g>
            </g>
          </g>
        </g>
      </g>
      <g id="Path_3-2" transform="translate(10.44 63.767)">
        <path id="Path_273" data-name="Path 273" d="M251.483,116.323H201.87L191,60.393s26.014,7.34,35.026,7.34S261.052,60.3,261.052,60.3Z" transform="translate(-191 -60.3)" fill="#dc2c6f"/>
      </g>
    </g>
    <g id="Group_8" data-name="Group 8" transform="translate(347.837 438.581)">
      <path id="Path_274" data-name="Path 274" d="M402.407,610.3h59.182v34.376H363.2V472.7h39.207V610.3Z" transform="translate(-363.2 -472.7)"/>
      <path id="Path_275" data-name="Path 275" d="M531.164,601.1c0,16.445,13.75,22.112,23.134,22.112,11.892,0,17.095-2.323,26.014-11.892L606.976,624.7c-12.078,20.254-31.681,27.965-55.466,27.965-32.332,0-58.81-25.457-58.81-56.488,0-31.217,26.479-56.673,58.81-56.673,32.518,0,57.324,19.139,57.324,56.673a43.627,43.627,0,0,1-.186,5.017H531.164Zm41.715-20.44c-1.672-11.242-9.384-17.281-20.254-17.281-12.728,0-19.789,7.525-20.44,17.281Z" transform="translate(-372.385 -477.438)"/>
      <path id="Path_276" data-name="Path 276" d="M647.2,542.459h36.884V553.7h.372c8.362-8.362,18.953-14.4,30.659-14.4,14.215,0,29.823,5.2,37.349,19.6,11.242-13.564,23.784-19.6,35.4-19.6,19.6,0,41.715,9.755,41.715,39.578V649.3H792.693V588.82c0-10.591-5.667-19.975-18.767-19.975-11.706,0-16.63,8.547-17.095,16.63v63.734H719.946V588.727c0-10.591-5.667-19.975-18.767-19.975-12.264,0-17.095,9.384-17.095,17.931v62.527H647.2V542.459Z" transform="translate(-383.343 -477.424)"/>
      <path id="Path_277" data-name="Path 277" d="M935.485,539.4c35.4,0,63.734,23.32,63.734,56.673,0,32.889-26.85,56.488-63.734,56.488-38.557,0-64.385-23.505-64.385-56.488C871.1,562.72,899.437,539.4,935.485,539.4Zm-.186,81.665c14.4,0,24.806-10.406,24.806-24.992,0-14.772-11.056-25.178-24.806-25.178-13.936,0-24.992,10.406-24.992,25.178C910.214,610.66,920.248,621.065,935.3,621.065Z" transform="translate(-399.224 -477.431)"/>
      <path id="Path_278" data-name="Path 278" d="M1038.4,542.459h36.884V553.7h.372c8.362-8.362,18.953-14.4,30.659-14.4,19.6,0,46.918,9.755,46.918,39.578V649.3h-36.884V588.82c0-10.591-7.34-20.811-19.139-20.811-11.056,0-21.926,10.22-21.926,20.811V649.3H1038.4V542.459Z" transform="translate(-411.09 -477.424)"/>
      <path id="Path_279" data-name="Path 279" d="M1222.768,660.83c4,6.5,12.914,13.75,28.987,13.75,10.22,0,26.014-6.039,26.014-24.992v-7.9c-7.9,8.733-20.44,10.87-35.026,10.87-31.217,0-53.143-25.178-53.143-56.488s21.926-56.673,53.143-56.673c14.215,0,25.642,4.552,34.376,12.728h.65v-9.569h36.884V652.375c0,35.862-26.479,54.351-62.9,54.351-22.3,0-47.94-5.017-59.182-31.031Zm31.031-39.764c14.4,0,24.806-10.406,24.806-24.992,0-14.772-11.056-25.178-24.806-25.178-13.936,0-24.992,10.406-24.992,25.178C1228.807,610.66,1238.748,621.065,1253.8,621.065Z" transform="translate(-421.815 -477.431)"/>
      <path id="Path_280" data-name="Path 280" d="M1362.293,542.459h36.884v15.423h.372s11.706-18.581,32.7-18.581a44.1,44.1,0,0,1,23.32,6.689l-15.423,31.217s-6.875-5.853-19.139-5.853c-19.139,0-21.926,18.953-21.926,21.647v56.3H1362.2V542.459Z" transform="translate(-434.057 -477.424)"/>
      <path id="Path_281" data-name="Path 281" d="M1528.343,539.4c14.4,0,26.293,4.831,35.026,13.379v-10.22h36.884V649.5H1563.74V637.417h-.372a47.439,47.439,0,0,1-35.026,15.237c-31.217,0-53.143-25.178-53.143-56.488S1497.033,539.4,1528.343,539.4Zm11.056,81.665c14.4,0,24.806-10.406,24.806-24.992,0-14.772-11.056-25.178-24.806-25.178-13.936,0-24.992,10.406-24.992,25.178C1514.314,610.66,1524.348,621.065,1539.4,621.065Z" transform="translate(-442.071 -477.431)"/>
      <path id="Path_282" data-name="Path 282" d="M1728.727,547.669l-12.078,24.156s-12.542-6.689-23.784-6.689c-8.083,0-11.428,1.487-11.428,6.5,0,5.667,7.526,7.34,16.63,10.22,14.215,4.367,32.517,12.264,32.517,34.19,0,31.5-28.8,36.513-50.634,36.513-25.828,0-41.251-14.4-41.251-14.4l15.051-25.178s14.586,12.264,26.479,12.264c5.2,0,11.428-.65,11.428-7.711,0-7.711-11.706-8.362-23.784-14.586-10.87-5.667-21.647-13.1-21.647-29.173,0-21.926,18.581-34.376,46.639-34.376A82.3,82.3,0,0,1,1728.727,547.669Z" transform="translate(-453.668 -477.431)"/>
      <path id="Path_283" data-name="Path 283" d="M1850.327,547.669l-12.078,24.156s-12.542-6.689-23.784-6.689c-8.083,0-11.428,1.487-11.428,6.5,0,5.667,7.526,7.34,16.63,10.22,14.215,4.367,32.518,12.264,32.518,34.19,0,31.5-28.8,36.513-50.634,36.513-25.828,0-41.251-14.4-41.251-14.4l15.051-25.178s14.586,12.264,26.479,12.264c5.2,0,11.428-.65,11.428-7.711,0-7.711-11.706-8.362-23.784-14.586-10.87-5.667-21.647-13.1-21.647-29.173,0-21.926,18.582-34.376,46.639-34.376A82.3,82.3,0,0,1,1850.327,547.669Z" transform="translate(-462.293 -477.431)"/>
    </g>
    <g id="Group_9" data-name="Group 9" transform="translate(1601.713 307.396)">
      <path id="Path_284" data-name="Path 284" d="M1725.714,376.939l.093-5.11.093-4.088v-1.208a9.045,9.045,0,0,0,.093-1.672.848.848,0,0,0-.279-.465.849.849,0,0,1-.279-.465v-.093a5.523,5.523,0,0,1-1.579.186,12.192,12.192,0,0,1-2.88-.372c-.372-.093-1.3-.186-2.88-.465V373.5c0,1.579.093,3.995.279,7.34.186,3.252.279,5.76.279,7.34a3.852,3.852,0,0,1-.743,2.323,2.259,2.259,0,0,1-1.858,1.022c-1.115,0-1.951-1.115-2.416-3.345a44.627,44.627,0,0,1-.743-8.826l.186-7.247c.093-2.044.093-4.181.093-6.411V363a8.616,8.616,0,0,0-.093-1.858v-.465l.279-5.2c0-2.23-.093-5.667-.279-10.127s-.279-7.8-.279-10.127a2.763,2.763,0,0,1,.743-1.858,2.288,2.288,0,0,1,1.765-.836c1.951,0,2.88,1.765,2.88,5.389L1718,348.974c-.093,3.345-.186,7.061-.186,11.149a18.351,18.351,0,0,0,4.831.465h3.345a4.664,4.664,0,0,0,.186-1.115c0-2.88-.186-7.061-.557-12.728-.372-5.2-.65-9.477-.65-12.821a2.326,2.326,0,0,1,.743-1.672,2.531,2.531,0,0,1,1.858-.65,6.185,6.185,0,0,1,1.765.465l.836.372c0,8.455.279,19.789.929,33.911l.836,22.576a2.224,2.224,0,0,1-.929,1.951,3.781,3.781,0,0,1-2.23.743C1726.736,391.711,1725.714,386.787,1725.714,376.939Z" transform="translate(-1712.8 -331.507)" fill="#fff"/>
      <path id="Path_285" data-name="Path 285" d="M1754.14,391.9a11.608,11.608,0,0,1-3.252-3.995,35.781,35.781,0,0,1-3.252-11.892,86.752,86.752,0,0,1-.836-11.706,9.587,9.587,0,0,1,.093-1.765v-1.579c0-.279,0-.465-.093-.465v-1.579l.093-6.225c.093-1.951.279-4.924.743-9.1a30.822,30.822,0,0,1,2.044-8.269,5.762,5.762,0,0,1,1.579-2.694,3.019,3.019,0,0,1,2.23-.929,15.477,15.477,0,0,1,6.411,1.3,12.527,12.527,0,0,1,4.831,3.623,20.566,20.566,0,0,1,3.066,5.482,31.879,31.879,0,0,1,1.765,6.968,53.927,53.927,0,0,1,.557,7.99v.743c0,1.858,0,3.53.093,5.017l.093,5.11c0,17.188-4,25.735-11.985,25.735A9.208,9.208,0,0,1,1754.14,391.9Zm6.875-3.53a7.731,7.731,0,0,0,2.044-3.53,33.759,33.759,0,0,0,2.044-9.848c.279-3.066.465-5.667.465-7.9a102.509,102.509,0,0,0-.65-10.591q-.558-6.829-.557-10.313v-1.579a9.332,9.332,0,0,0-2.323-5.946,6.506,6.506,0,0,0-5.11-2.509c-2.044,0-3.345,1.208-4,3.53a25.236,25.236,0,0,0-.929,7.154,27.06,27.06,0,0,0,.093,2.88v2.416l-.186,4.088c-.093,1.208-.186,2.6-.186,4.088,0,3.252.093,6.411.279,9.569a84.35,84.35,0,0,0,1.765,13.007c.929,4.367,2.323,6.6,4.181,6.6A3.557,3.557,0,0,0,1761.015,388.373Z" transform="translate(-1715.211 -331.514)" fill="#fff"/>
      <path id="Path_286" data-name="Path 286" d="M1784.6,391.8a3.294,3.294,0,0,1-1.3-2.323l1.022-1.487a4.973,4.973,0,0,1,1.672.372,11.348,11.348,0,0,0,2.044.279,3.738,3.738,0,0,0,2.88-1.394,10.06,10.06,0,0,0,1.951-3.716,30.853,30.853,0,0,0,1.115-7.711,25.1,25.1,0,0,0-3.716-12.45l-1.022-1.672c-1.115-1.951-2.044-3.716-2.88-5.3a40.161,40.161,0,0,1-1.951-5.017,22.75,22.75,0,0,1-1.115-6.968,21.384,21.384,0,0,1,1.765-8.269,8.376,8.376,0,0,1,2.508-3.345,6.029,6.029,0,0,1,3.716-1.3,5,5,0,0,1,2.973,1.022,2.914,2.914,0,0,1,1.394,2.416,1.26,1.26,0,0,1-.65,1.208,2.571,2.571,0,0,1-1.486.465,3.35,3.35,0,0,1-1.858-.557c-1.3.093-2.323,1.208-3.159,3.53a18.163,18.163,0,0,0-1.022,5.2,16.92,16.92,0,0,0,.836,5.2,22.078,22.078,0,0,0,2.044,4.738l1.951,3.53,3.159,5.946a28.667,28.667,0,0,1,2.044,5.853,32.786,32.786,0,0,1,.743,6.689,22.9,22.9,0,0,1-2.508,10.406,10.492,10.492,0,0,1-3.531,3.995,8.611,8.611,0,0,1-5.017,1.487v.279A6,6,0,0,1,1784.6,391.8Z" transform="translate(-1717.8 -331.5)" fill="#fff"/>
      <path id="Path_287" data-name="Path 287" d="M1817.42,390.267l-.093-3.53c-.093-1.022-.093-2.137-.093-3.438l.093-3.066c-.186-.65-.65-7.154-1.3-19.6-.743-12.357-1.115-20.347-1.208-23.877-3.438-.093-5.667-.465-6.6-1.115a2.069,2.069,0,0,1-1.022-1.579,1.545,1.545,0,0,1,.929-1.3,3.9,3.9,0,0,1,1.951-.557,50.919,50.919,0,0,1,6.039.372,50.339,50.339,0,0,0,6.039.465h1.487c1.858,0,2.787.743,2.787,2.137a2.012,2.012,0,0,1-.929,1.765,3.167,3.167,0,0,1-2.044.65,13.814,13.814,0,0,1-2.323-.279l-1.765-.372-.093.465-.093.465c0,5.3.464,13.75,1.486,25.364q1.394,16.305,1.394,25.364a2.285,2.285,0,0,1-.929,1.858,3.1,3.1,0,0,1-2.137.836Z" transform="translate(-1719.495 -331.55)" fill="#fff"/>
      <path id="Path_288" data-name="Path 288" d="M1842.679,392.182a2.894,2.894,0,0,1-1.022-1.951v-4.088a11.847,11.847,0,0,1-.093-1.858c0-1.208-.093-3.159-.279-5.76l-.186-5.76c0-2.88.093-7.247.279-13.007.279-5.2.372-9.569.372-13.007a36.616,36.616,0,0,0-.279-3.716c-.186-1.765-.279-2.973-.279-3.716,0-4.274,1.208-6.318,3.716-6.318a22.817,22.817,0,0,1,6.875,1.208q3.9,1.115,3.9,2.787a2.694,2.694,0,0,1-.743,1.672,5.366,5.366,0,0,1-1.858,1.208,31.908,31.908,0,0,0-6.782-1.765c.093.929.093,2.137.093,3.809,0,2.416,0,4.552-.093,6.411q-.279,4.32-.279,6.411l.279,1.394,1.394-.093a10.114,10.114,0,0,1,1.765-.093c2.88,0,4.274.836,4.274,2.509a2.11,2.11,0,0,1-.836,1.672,3,3,0,0,1-2.044.65,15.359,15.359,0,0,1-2.508-.186h-2.23c.093,1.579.186,3.809.186,6.782s0,5.667-.093,8.083c-.186,3.623-.279,6.318-.279,8.176a29.215,29.215,0,0,0,.186,5.017l2.973-.093c1.022-.093,2.23-.093,3.623-.093,2.23,0,3.438.743,3.438,2.137a2.184,2.184,0,0,1-1.115,1.951,5.042,5.042,0,0,1-2.694.65h-7.618A7.022,7.022,0,0,1,1842.679,392.182Z" transform="translate(-1721.9 -331.606)" fill="#fff"/>
      <path id="Path_289" data-name="Path 289" d="M1876.967,392.161a5.934,5.934,0,0,1-3.066.929,2.284,2.284,0,0,1-1.858-.929,3.452,3.452,0,0,1-.743-2.044c0-5.017.186-11.706.65-19.975.372-8.919.557-15.516.557-19.975v-.65c-.372-3.716-.557-6.6-.557-8.362,0-5.667,1.022-8.455,3.159-8.455a2.176,2.176,0,0,1,1.579.65,2.038,2.038,0,0,1,.65,1.579,32.594,32.594,0,0,1-.279,3.438,29.3,29.3,0,0,0-.279,3.438c0,3.995,0,7.618.093,10.777s.093,6.689.093,10.684a12.958,12.958,0,0,0-.465,3.716V368.1l-.186,7.061c-.093,2.044-.186,4.46-.186,7.154,0,4.088,1.022,6.132,2.973,6.132h1.672a13.122,13.122,0,0,1,2.044-.093c3.252,0,4.831.929,4.831,2.694a1.785,1.785,0,0,1-.836,1.487,6.193,6.193,0,0,1-1.951.836A21.717,21.717,0,0,0,1876.967,392.161Z" transform="translate(-1724.042 -331.585)" fill="#fff"/>
    </g>
  </g>
  <rect id="Rectangle_27" data-name="Rectangle 27" width="1770" height="681" fill="none"/>
</svg>
